<?xml version="1.0" standalone="no"?>
<!DOCTYPE svg PUBLIC "-//W3C//DTD SVG 20010904//EN"
 "http://www.w3.org/TR/2001/REC-SVG-20010904/DTD/svg10.dtd">
<svg version="1.0" xmlns="http://www.w3.org/2000/svg"
 width="128.000000pt" height="128.000000pt" viewBox="0 0 128.000000 128.000000"
 preserveAspectRatio="xMidYMid meet">
<metadata>
Created by potrace 1.14, written by Peter Selinger 2001-2017
</metadata>
<g transform="translate(0.000000,128.000000) scale(0.100000,-0.100000)"
fill="#000000" stroke="none">
<path d="M532 1270 c-390 -70 -624 -472 -492 -846 65 -187 231 -342 425 -400
83 -25 267 -25 350 0 209 62 379 232 441 441 25 83 25 267 0 350 -63 213 -237
384 -446 440 -71 19 -211 27 -278 15z m425 -396 c7 -18 -4 -98 -48 -364 -16
-96 -29 -178 -29 -182 0 -14 -39 -48 -55 -48 -15 0 -265 166 -277 184 -15 22
-7 33 107 141 99 95 132 135 110 135 -3 0 -74 -47 -158 -104 -84 -58 -165
-108 -180 -111 -32 -8 -154 26 -187 53 -18 14 -19 20 -9 28 28 21 211 100 569
247 95 39 147 46 157 21z"/>
</g>
</svg>
