<?xml version="1.0" standalone="no"?>
<!DOCTYPE svg PUBLIC "-//W3C//DTD SVG 20010904//EN"
 "http://www.w3.org/TR/2001/REC-SVG-20010904/DTD/svg10.dtd">
<svg version="1.0" xmlns="http://www.w3.org/2000/svg"
 width="128.000000pt" height="128.000000pt" viewBox="0 0 128.000000 128.000000"
 preserveAspectRatio="xMidYMid meet">
<metadata>
Created by potrace 1.14, written by Peter Selinger 2001-2017
</metadata>
<g transform="translate(0.000000,128.000000) scale(0.100000,-0.100000)"
fill="#000000" stroke="none">
<path d="M532 1270 c-224 -41 -418 -203 -492 -412 -123 -350 70 -728 425 -834
83 -25 267 -25 350 0 160 47 315 172 387 311 191 369 1 815 -392 920 -71 19
-211 27 -278 15z m152 -466 c13 -5 16 -23 16 -89 0 -46 4 -87 10 -90 15 -9 54
38 86 105 l28 60 58 2 c32 1 66 2 76 2 35 2 24 -40 -32 -115 -31 -41 -56 -79
-56 -84 0 -6 25 -35 55 -65 35 -34 55 -63 55 -77 0 -22 -3 -23 -77 -23 l-77 0
-48 47 c-53 52 -74 49 -80 -10 -3 -31 -4 -32 -57 -35 -76 -4 -149 33 -205 105
-54 69 -138 220 -134 242 3 14 49 19 129 11 3 0 13 -17 23 -37 30 -64 77 -133
91 -133 17 0 25 23 25 76 0 52 -14 84 -37 84 -13 0 -13 3 -3 15 13 15 121 22
154 9z"/>
</g>
</svg>
