<?xml version="1.0" standalone="no"?>
<!DOCTYPE svg PUBLIC "-//W3C//DTD SVG 20010904//EN"
 "http://www.w3.org/TR/2001/REC-SVG-20010904/DTD/svg10.dtd">
<svg version="1.0" xmlns="http://www.w3.org/2000/svg"
 width="72.000000pt" height="72.000000pt" viewBox="0 0 72.000000 72.000000"
 preserveAspectRatio="xMidYMid meet">
<metadata>
Created by potrace 1.14, written by Peter Selinger 2001-2017
</metadata>
<g transform="translate(0.000000,72.000000) scale(0.100000,-0.100000)"
fill="#000000" stroke="none">
<path d="M277 710 c-271 -69 -366 -409 -169 -603 141 -139 363 -139 504 0 176
173 122 475 -104 578 -64 29 -169 40 -231 25z m164 -131 c111 -37 172 -157
138 -270 -34 -113 -170 -179 -284 -138 -24 9 -42 8 -83 -3 -28 -9 -53 -13 -56
-11 -2 3 3 25 11 49 14 41 14 51 -2 105 -47 170 110 323 276 268z M305 535
c-91 -43 -133 -152 -90 -235 11 -22 12 -35 5 -56 -13 -33 -11 -36 26 -25 19 5
39 3 59 -5 157 -68 307 115 212 258 -43 65 -144 95 -212 63z m24 -91 c9 -21 9
-30 -1 -41 -10 -13 -6 -21 26 -50 35 -32 39 -34 55 -18 15 13 23 14 45 4 56
-26 15 -77 -51 -64 -41 7 -115 72 -133 116 -25 60 32 112 59 53z"/>
</g>
</svg>
